<svg id="Layer_1" data-name="Layer 1" xmlns="http://www.w3.org/2000/svg" xmlns:xlink="http://www.w3.org/1999/xlink" viewBox="0 0 16 16"><defs><style>.cls-1{fill:#333;}.cls-2{fill:url(#Logo_Dark);}.cls-3{fill:url(#Logo_Dark-2);}.cls-4{fill:url(#Logo_Dark-3);}.cls-5{fill:url(#Logo_Dark-4);}.cls-6{fill:url(#Logo_Dark-5);}</style><linearGradient id="Logo_Dark" x1="8.26" y1="8.44" x2="11.82" y2="14.6" gradientUnits="userSpaceOnUse"><stop offset="0" stop-color="#d94b7b"/><stop offset="0.37" stop-color="#d14e8f"/><stop offset="1" stop-color="#bf56bb"/></linearGradient><linearGradient id="Logo_Dark-2" x1="30.42" y1="11.62" x2="34.18" y2="19.12" gradientTransform="translate(-19.83 -2.25) rotate(-3.36)" xlink:href="#Logo_Dark"/><linearGradient id="Logo_Dark-3" x1="21.7" y1="11.85" x2="24.5" y2="17.13" gradientTransform="translate(-12.68 -2.64) rotate(-2.1)" xlink:href="#Logo_Dark"/><linearGradient id="Logo_Dark-4" x1="21.36" y1="11.47" x2="24.06" y2="16.53" gradientTransform="translate(-11.81 -2.27) rotate(-1.94)" xlink:href="#Logo_Dark"/><linearGradient id="Logo_Dark-5" x1="9.25" y1="7.61" x2="13.75" y2="15.4" xlink:href="#Logo_Dark"/></defs><title>overlay-markdown_dark</title><circle class="cls-1" cx="11.5" cy="11.5" r="4.5"/><path class="cls-2" d="M10.31,12.7a11.46,11.46,0,0,0-2.05.58,7.1,7.1,0,0,1,2.36-5.59,10.42,10.42,0,0,0-.55,2.51A10.31,10.31,0,0,0,10.31,12.7Z"/><path class="cls-3" d="M15.3,11.64S12.41,10.21,11.73,8h0a12.55,12.55,0,0,0,.83,4.87S15.3,11.64,15.3,11.64Z"/><polygon class="cls-4" points="10.52 7.65 10.87 13.96 11.33 13.77 10.72 7.57 10.52 7.65"/><polygon class="cls-5" points="11.57 7.81 10.87 13.93 11.3 13.97 11.74 7.8 11.57 7.81"/><path class="cls-6" d="M11.5,16a4.47,4.47,0,0,1-3.8-2.09l-.19-.3h8l-.19.29A4.47,4.47,0,0,1,11.5,16ZM7.74,13.17a4,4,0,0,1-.36-1.67,4.12,4.12,0,1,1,7.89,1.66s.41,0,.43,0A4.5,4.5,0,1,0,7,11.5a4.3,4.3,0,0,0,.31,1.63C7.33,13.2,7.74,13.17,7.74,13.17Z"/></svg>